<svg width="246" height="458" viewBox="0 0 246 458" fill="none" xmlns="http://www.w3.org/2000/svg">
<mask id="mask0" mask-type="alpha" maskUnits="userSpaceOnUse" x="0" y="0" width="246" height="458">
<rect width="246" height="458" rx="8" fill="#003333"/>
</mask>
<g mask="url(#mask0)">
<rect width="246" height="458" rx="8" fill="#003333"/>
<g filter="url(#filter0_f)">
<circle cx="124.5" cy="367.5" r="94.5" fill="#3FCDB4" fill-opacity="0.4"/>
</g>
<path d="M0.5 390.243L246 332V446C246 452.627 240.627 458 234 458H12.5C5.87259 458 0.5 452.627 0.5 446V390.243Z" fill="#003333"/>
</g>
<path d="M111.143 27.3449V26.3336H111.786C111.872 26.3336 111.961 26.3398 112.053 26.352C112.151 26.3643 112.237 26.3888 112.31 26.4256C112.39 26.4562 112.454 26.5022 112.504 26.5635C112.553 26.6247 112.577 26.7075 112.577 26.8117C112.577 27.0446 112.507 27.1917 112.366 27.2529C112.225 27.3142 112.044 27.3449 111.823 27.3449H111.143ZM110.38 25.7361V29.588H111.143V27.9424H111.621L112.559 29.588H113.358L112.329 27.9057C112.47 27.8934 112.602 27.8658 112.724 27.8229C112.847 27.78 112.954 27.7187 113.046 27.6391C113.138 27.5594 113.208 27.4583 113.257 27.3357C113.313 27.207 113.34 27.0538 113.34 26.876C113.34 26.4593 113.208 26.1651 112.945 25.9935C112.687 25.8219 112.317 25.7361 111.832 25.7361H110.38ZM109.157 27.6666C109.157 27.2744 109.225 26.9159 109.359 26.591C109.494 26.2601 109.678 25.9751 109.911 25.7361C110.144 25.497 110.417 25.3101 110.729 25.1753C111.048 25.0405 111.388 24.973 111.75 24.973C112.105 24.973 112.439 25.0405 112.752 25.1753C113.07 25.3101 113.346 25.497 113.579 25.7361C113.812 25.9751 113.996 26.2601 114.131 26.591C114.272 26.9159 114.342 27.2744 114.342 27.6666C114.342 28.0589 114.272 28.4205 114.131 28.7514C113.996 29.0824 113.812 29.3704 113.579 29.6156C113.346 29.8546 113.07 30.0416 112.752 30.1764C112.439 30.3112 112.105 30.3786 111.75 30.3786C111.388 30.3786 111.048 30.3112 110.729 30.1764C110.417 30.0416 110.144 29.8546 109.911 29.6156C109.678 29.3704 109.494 29.0824 109.359 28.7514C109.225 28.4205 109.157 28.0589 109.157 27.6666ZM108.219 27.6666C108.219 28.1937 108.314 28.6687 108.504 29.0916C108.701 29.5145 108.961 29.8761 109.286 30.1764C109.611 30.4767 109.985 30.7065 110.407 30.8659C110.836 31.0252 111.284 31.1049 111.75 31.1049C112.215 31.1049 112.66 31.0252 113.083 30.8659C113.512 30.7065 113.889 30.4767 114.213 30.1764C114.538 29.8761 114.796 29.5145 114.986 29.0916C115.182 28.6687 115.28 28.1937 115.28 27.6666C115.28 27.1457 115.182 26.6738 114.986 26.2509C114.796 25.828 114.538 25.4695 114.213 25.1753C113.889 24.875 113.512 24.6451 113.083 24.4858C112.66 24.3203 112.215 24.2376 111.75 24.2376C111.284 24.2376 110.836 24.3203 110.407 24.4858C109.985 24.6451 109.611 24.875 109.286 25.1753C108.961 25.4695 108.701 25.828 108.504 26.2509C108.314 26.6738 108.219 27.1457 108.219 27.6666Z" fill="white"/>
<rect x="26" y="46.8511" width="76.9714" height="3.14883" fill="#FFC46C"/>
<path d="M31.1956 39.2309C30.3489 39.2309 29.6048 39.0962 28.9634 38.8268C28.322 38.5446 27.8088 38.1597 27.424 37.6722C27.0391 37.1848 26.8082 36.6203 26.7312 35.9789H29.2136C29.2905 36.3509 29.4958 36.6716 29.8293 36.941C30.1757 37.1976 30.6183 37.3259 31.1571 37.3259C31.6959 37.3259 32.0872 37.2168 32.3309 36.9987C32.5875 36.7807 32.7158 36.5305 32.7158 36.2483C32.7158 35.8378 32.5362 35.5619 32.177 35.4208C31.8178 35.2669 31.3174 35.1194 30.676 34.9782C30.2655 34.8884 29.8486 34.7794 29.4252 34.6511C29.0019 34.5228 28.6106 34.3625 28.2514 34.17C27.905 33.9648 27.6228 33.7082 27.4047 33.4003C27.1866 33.0796 27.0776 32.6883 27.0776 32.2265C27.0776 31.3798 27.4111 30.6678 28.0782 30.0906C28.7581 29.5133 29.7075 29.2246 30.9262 29.2246C32.0551 29.2246 32.9531 29.4876 33.6202 30.0136C34.3001 30.5396 34.7042 31.2644 34.8325 32.188H32.5041C32.363 31.4825 31.8306 31.1297 30.9069 31.1297C30.4451 31.1297 30.0859 31.2195 29.8293 31.3991C29.5856 31.5787 29.4637 31.8032 29.4637 32.0726C29.4637 32.3548 29.6497 32.5793 30.0218 32.7461C30.3938 32.9128 30.8877 33.0668 31.5035 33.2079C32.1705 33.3618 32.7799 33.535 33.3315 33.7275C33.896 33.9071 34.345 34.1829 34.6785 34.5549C35.0121 34.9141 35.1788 35.4337 35.1788 36.1136C35.1917 36.7037 35.0377 37.2361 34.717 37.7107C34.3963 38.1854 33.9345 38.5574 33.3315 38.8268C32.7286 39.0962 32.0166 39.2309 31.1956 39.2309ZM36.7835 39V25.1451H39.2466V30.918C39.5673 30.392 39.9971 29.9815 40.5359 29.6865C41.0875 29.3786 41.7161 29.2246 42.4217 29.2246C43.6019 29.2246 44.5127 29.5967 45.1542 30.3407C45.8084 31.0848 46.1355 32.1752 46.1355 33.612V39H43.6917V33.8429C43.6917 33.0219 43.5249 32.3933 43.1914 31.9571C42.8707 31.5209 42.3575 31.3029 41.652 31.3029C40.9592 31.3029 40.3819 31.5466 39.9201 32.0341C39.4711 32.5216 39.2466 33.2015 39.2466 34.0738V39H36.7835ZM52.4933 39.2309C51.5697 39.2309 50.7358 39.0192 49.9918 38.5959C49.2605 38.1726 48.6768 37.5889 48.2407 36.8448C47.8173 36.0879 47.6057 35.2156 47.6057 34.2278C47.6057 33.24 47.8237 32.374 48.2599 31.63C48.6961 30.8731 49.2798 30.283 50.011 29.8596C50.7551 29.4363 51.5889 29.2246 52.5126 29.2246C53.4234 29.2246 54.2444 29.4363 54.9757 29.8596C55.7197 30.283 56.3034 30.8731 56.7268 31.63C57.1629 32.374 57.381 33.24 57.381 34.2278C57.381 35.2156 57.1629 36.0879 56.7268 36.8448C56.3034 37.5889 55.7197 38.1726 54.9757 38.5959C54.2316 39.0192 53.4042 39.2309 52.4933 39.2309ZM52.4933 37.095C53.1348 37.095 53.6928 36.8576 54.1675 36.383C54.6421 35.8955 54.8795 35.1771 54.8795 34.2278C54.8795 33.2785 54.6421 32.5665 54.1675 32.0918C53.6928 31.6043 53.1412 31.3606 52.5126 31.3606C51.8583 31.3606 51.2939 31.6043 50.8192 32.0918C50.3574 32.5665 50.1265 33.2785 50.1265 34.2278C50.1265 35.1771 50.3574 35.8955 50.8192 36.383C51.2939 36.8576 51.8519 37.095 52.4933 37.095ZM59.006 43.2334V29.4555H61.1997L61.4691 30.8218C61.777 30.3984 62.1811 30.0264 62.6814 29.7057C63.1945 29.385 63.8552 29.2246 64.6634 29.2246C65.5614 29.2246 66.3632 29.4427 67.0687 29.8789C67.7743 30.3151 68.3324 30.9116 68.7429 31.6685C69.1534 32.4254 69.3586 33.2849 69.3586 34.247C69.3586 35.2092 69.1534 36.0687 68.7429 36.8256C68.3324 37.5696 67.7743 38.1597 67.0687 38.5959C66.3632 39.0192 65.5614 39.2309 64.6634 39.2309C63.945 39.2309 63.3164 39.0962 62.7776 38.8268C62.2388 38.5574 61.8026 38.179 61.4691 37.6915V43.2334H59.006ZM64.1438 37.0757C64.9264 37.0757 65.5742 36.8127 66.0874 36.2868C66.6005 35.7608 66.8571 35.0809 66.8571 34.247C66.8571 33.4132 66.6005 32.7268 66.0874 32.188C65.5742 31.6492 64.9264 31.3798 64.1438 31.3798C63.3485 31.3798 62.6942 31.6492 62.1811 32.188C61.6808 32.714 61.4306 33.3939 61.4306 34.2278C61.4306 35.0616 61.6808 35.748 62.1811 36.2868C62.6942 36.8127 63.3485 37.0757 64.1438 37.0757ZM72.51 39L69.7197 29.4555H72.1636L73.8185 36.3252L75.7428 29.4555H78.4752L80.3995 36.3252L82.0737 29.4555H84.5175L81.708 39H79.1487L77.109 31.8609L75.0693 39H72.51ZM89.7935 39.2309C88.8314 39.2309 87.9783 39.0257 87.2342 38.6151C86.4901 38.2046 85.9064 37.6273 85.4831 36.8833C85.0598 36.1392 84.8481 35.2797 84.8481 34.3047C84.8481 33.3169 85.0533 32.4382 85.4639 31.6685C85.8872 30.8988 86.4645 30.3022 87.1957 29.8789C87.9398 29.4427 88.8121 29.2246 89.8127 29.2246C90.7492 29.2246 91.5767 29.4299 92.2951 29.8404C93.0135 30.2509 93.5715 30.8154 93.9692 31.5338C94.3797 32.2393 94.585 33.0283 94.585 33.9006C94.585 34.0418 94.5786 34.1893 94.5657 34.3432C94.5657 34.4972 94.5593 34.6575 94.5465 34.8243H87.2919C87.3432 35.5684 87.5998 36.1521 88.0616 36.5754C88.5363 36.9987 89.1072 37.2104 89.7743 37.2104C90.2746 37.2104 90.6915 37.1014 91.025 36.8833C91.3714 36.6524 91.628 36.3573 91.7948 35.9981H94.2963C94.1167 36.6011 93.8153 37.1527 93.3919 37.653C92.9814 38.1405 92.4683 38.5253 91.8525 38.8076C91.2495 39.0898 90.5632 39.2309 89.7935 39.2309ZM89.8127 31.2259C89.2098 31.2259 88.6774 31.3991 88.2156 31.7454C87.7538 32.079 87.4587 32.5921 87.3304 33.2849H92.0834C92.0449 32.6563 91.814 32.156 91.3907 31.7839C90.9673 31.4119 90.4413 31.2259 89.8127 31.2259ZM96.0793 39V25.1451H98.5424V39H96.0793ZM100.482 39V25.1451H102.945V39H100.482Z" fill="white"/>
<path d="M32.3 118L26.75 97H30.86L34.64 113.71L39.08 97H43.31L47.63 113.71L51.41 97H55.55L49.85 118H45.29L41.12 102.43L36.83 118H32.3ZM63.5009 118.36C62.0609 118.36 60.7609 118.03 59.6009 117.37C58.4609 116.71 57.5509 115.8 56.8709 114.64C56.2109 113.46 55.8809 112.1 55.8809 110.56C55.8809 109.02 56.2209 107.67 56.9009 106.51C57.5809 105.33 58.4909 104.41 59.6309 103.75C60.7909 103.09 62.0909 102.76 63.5309 102.76C64.9509 102.76 66.2309 103.09 67.3709 103.75C68.5309 104.41 69.4409 105.33 70.1009 106.51C70.7809 107.67 71.1209 109.02 71.1209 110.56C71.1209 112.1 70.7809 113.46 70.1009 114.64C69.4409 115.8 68.5309 116.71 67.3709 117.37C66.2109 118.03 64.9209 118.36 63.5009 118.36ZM63.5009 115.03C64.5009 115.03 65.3709 114.66 66.1109 113.92C66.8509 113.16 67.2209 112.04 67.2209 110.56C67.2209 109.08 66.8509 107.97 66.1109 107.23C65.3709 106.47 64.5109 106.09 63.5309 106.09C62.5109 106.09 61.6309 106.47 60.8909 107.23C60.1709 107.97 59.8109 109.08 59.8109 110.56C59.8109 112.04 60.1709 113.16 60.8909 113.92C61.6309 114.66 62.5009 115.03 63.5009 115.03ZM74.2543 118V103.12H77.6743L78.0343 105.91C78.5743 104.95 79.3043 104.19 80.2243 103.63C81.1643 103.05 82.2643 102.76 83.5243 102.76V106.81H82.4443C81.6043 106.81 80.8543 106.94 80.1943 107.2C79.5343 107.46 79.0143 107.91 78.6343 108.55C78.2743 109.19 78.0943 110.08 78.0943 111.22V118H74.2543ZM85.8488 118V96.4H89.6888V109.15L94.9688 103.12H99.5288L93.4388 109.9L100.519 118H95.7188L89.6888 110.53V118H85.8488ZM34.1 151.36C32.78 151.36 31.62 151.15 30.62 150.73C29.62 150.29 28.82 149.69 28.22 148.93C27.62 148.17 27.26 147.29 27.14 146.29H31.01C31.13 146.87 31.45 147.37 31.97 147.79C32.51 148.19 33.2 148.39 34.04 148.39C34.88 148.39 35.49 148.22 35.87 147.88C36.27 147.54 36.47 147.15 36.47 146.71C36.47 146.07 36.19 145.64 35.63 145.42C35.07 145.18 34.29 144.95 33.29 144.73C32.65 144.59 32 144.42 31.34 144.22C30.68 144.02 30.07 143.77 29.51 143.47C28.97 143.15 28.53 142.75 28.19 142.27C27.85 141.77 27.68 141.16 27.68 140.44C27.68 139.12 28.2 138.01 29.24 137.11C30.3 136.21 31.78 135.76 33.68 135.76C35.44 135.76 36.84 136.17 37.88 136.99C38.94 137.81 39.57 138.94 39.77 140.38H36.14C35.92 139.28 35.09 138.73 33.65 138.73C32.93 138.73 32.37 138.87 31.97 139.15C31.59 139.43 31.4 139.78 31.4 140.2C31.4 140.64 31.69 140.99 32.27 141.25C32.85 141.51 33.62 141.75 34.58 141.97C35.62 142.21 36.57 142.48 37.43 142.78C38.31 143.06 39.01 143.49 39.53 144.07C40.05 144.63 40.31 145.44 40.31 146.5C40.33 147.42 40.09 148.25 39.59 148.99C39.09 149.73 38.37 150.31 37.43 150.73C36.49 151.15 35.38 151.36 34.1 151.36ZM43.4117 151V136.12H46.8017L47.1317 138.13C47.6117 137.41 48.2417 136.84 49.0217 136.42C49.8217 135.98 50.7417 135.76 51.7817 135.76C54.0817 135.76 55.7117 136.65 56.6717 138.43C57.2117 137.61 57.9317 136.96 58.8317 136.48C59.7517 136 60.7517 135.76 61.8317 135.76C63.7717 135.76 65.2617 136.34 66.3017 137.5C67.3417 138.66 67.8617 140.36 67.8617 142.6V151H64.0217V142.96C64.0217 141.68 63.7717 140.7 63.2717 140.02C62.7917 139.34 62.0417 139 61.0217 139C59.9817 139 59.1417 139.38 58.5017 140.14C57.8817 140.9 57.5717 141.96 57.5717 143.32V151H53.7317V142.96C53.7317 141.68 53.4817 140.7 52.9817 140.02C52.4817 139.34 51.7117 139 50.6717 139C49.6517 139 48.8217 139.38 48.1817 140.14C47.5617 140.9 47.2517 141.96 47.2517 143.32V151H43.4117ZM76.3374 151.36C75.0574 151.36 74.0074 151.16 73.1874 150.76C72.3674 150.34 71.7574 149.79 71.3574 149.11C70.9574 148.43 70.7574 147.68 70.7574 146.86C70.7574 145.48 71.2974 144.36 72.3774 143.5C73.4574 142.64 75.0774 142.21 77.2374 142.21H81.0174V141.85C81.0174 140.83 80.7274 140.08 80.1474 139.6C79.5674 139.12 78.8474 138.88 77.9874 138.88C77.2074 138.88 76.5274 139.07 75.9474 139.45C75.3674 139.81 75.0074 140.35 74.8674 141.07H71.1174C71.2174 139.99 71.5774 139.05 72.1974 138.25C72.8374 137.45 73.6574 136.84 74.6574 136.42C75.6574 135.98 76.7774 135.76 78.0174 135.76C80.1374 135.76 81.8074 136.29 83.0274 137.35C84.2474 138.41 84.8574 139.91 84.8574 141.85V151H81.5874L81.2274 148.6C80.7874 149.4 80.1674 150.06 79.3674 150.58C78.5874 151.1 77.5774 151.36 76.3374 151.36ZM77.2074 148.36C78.3074 148.36 79.1574 148 79.7574 147.28C80.3774 146.56 80.7674 145.67 80.9274 144.61H77.6574C76.6374 144.61 75.9074 144.8 75.4674 145.18C75.0274 145.54 74.8074 145.99 74.8074 146.53C74.8074 147.11 75.0274 147.56 75.4674 147.88C75.9074 148.2 76.4874 148.36 77.2074 148.36ZM88.2219 151V136.12H91.6419L92.0019 138.91C92.5419 137.95 93.2719 137.19 94.1919 136.63C95.1319 136.05 96.2319 135.76 97.4919 135.76V139.81H96.4119C95.5719 139.81 94.8219 139.94 94.1619 140.2C93.5019 140.46 92.9819 140.91 92.6019 141.55C92.2419 142.19 92.0619 143.08 92.0619 144.22V151H88.2219ZM106.446 151C104.886 151 103.636 150.62 102.696 149.86C101.756 149.1 101.286 147.75 101.286 145.81V139.33H98.7364V136.12H101.286L101.736 132.13H105.126V136.12H109.146V139.33H105.126V145.84C105.126 146.56 105.276 147.06 105.576 147.34C105.896 147.6 106.436 147.73 107.196 147.73H109.056V151H106.446ZM118.993 151.36C117.493 151.36 116.163 151.04 115.003 150.4C113.843 149.76 112.933 148.86 112.273 147.7C111.613 146.54 111.283 145.2 111.283 143.68C111.283 142.14 111.603 140.77 112.243 139.57C112.903 138.37 113.803 137.44 114.943 136.78C116.103 136.1 117.463 135.76 119.023 135.76C120.483 135.76 121.773 136.08 122.893 136.72C124.013 137.36 124.883 138.24 125.503 139.36C126.143 140.46 126.463 141.69 126.463 143.05C126.463 143.27 126.453 143.5 126.433 143.74C126.433 143.98 126.423 144.23 126.403 144.49H115.093C115.173 145.65 115.573 146.56 116.293 147.22C117.033 147.88 117.923 148.21 118.963 148.21C119.743 148.21 120.393 148.04 120.913 147.7C121.453 147.34 121.853 146.88 122.113 146.32H126.013C125.733 147.26 125.263 148.12 124.603 148.9C123.963 149.66 123.163 150.26 122.203 150.7C121.263 151.14 120.193 151.36 118.993 151.36ZM119.023 138.88C118.083 138.88 117.253 139.15 116.533 139.69C115.813 140.21 115.353 141.01 115.153 142.09H122.563C122.503 141.11 122.143 140.33 121.483 139.75C120.823 139.17 120.003 138.88 119.023 138.88ZM129.392 151V136.12H132.812L133.172 138.91C133.712 137.95 134.442 137.19 135.362 136.63C136.302 136.05 137.402 135.76 138.662 135.76V139.81H137.582C136.742 139.81 135.992 139.94 135.332 140.2C134.672 140.46 134.152 140.91 133.772 141.55C133.412 142.19 133.232 143.08 133.232 144.22V151H129.392ZM141.436 151.21C140.736 151.21 140.156 150.99 139.696 150.55C139.256 150.11 139.036 149.58 139.036 148.96C139.036 148.32 139.256 147.78 139.696 147.34C140.156 146.9 140.736 146.68 141.436 146.68C142.136 146.68 142.706 146.9 143.146 147.34C143.606 147.78 143.836 148.32 143.836 148.96C143.836 149.58 143.606 150.11 143.146 150.55C142.706 150.99 142.136 151.21 141.436 151.21Z" fill="white"/>
<path d="M35.21 184.36C33.67 184.36 32.31 184.1 31.13 183.58C29.95 183.04 29.02 182.28 28.34 181.3C27.66 180.3 27.31 179.09 27.29 177.67H31.34C31.38 178.65 31.73 179.48 32.39 180.16C33.07 180.82 34 181.15 35.18 181.15C36.2 181.15 37.01 180.91 37.61 180.43C38.21 179.93 38.51 179.27 38.51 178.45C38.51 177.59 38.24 176.92 37.7 176.44C37.18 175.96 36.48 175.57 35.6 175.27C34.72 174.97 33.78 174.65 32.78 174.31C31.16 173.75 29.92 173.03 29.06 172.15C28.22 171.27 27.8 170.1 27.8 168.64C27.78 167.4 28.07 166.34 28.67 165.46C29.29 164.56 30.13 163.87 31.19 163.39C32.25 162.89 33.47 162.64 34.85 162.64C36.25 162.64 37.48 162.89 38.54 163.39C39.62 163.89 40.46 164.59 41.06 165.49C41.68 166.39 42.01 167.46 42.05 168.7H37.94C37.92 167.96 37.63 167.31 37.07 166.75C36.53 166.17 35.77 165.88 34.79 165.88C33.95 165.86 33.24 166.07 32.66 166.51C32.1 166.93 31.82 167.55 31.82 168.37C31.82 169.07 32.04 169.63 32.48 170.05C32.92 170.45 33.52 170.79 34.28 171.07C35.04 171.35 35.91 171.65 36.89 171.97C37.93 172.33 38.88 172.75 39.74 173.23C40.6 173.71 41.29 174.35 41.81 175.15C42.33 175.93 42.59 176.94 42.59 178.18C42.59 179.28 42.31 180.3 41.75 181.24C41.19 182.18 40.36 182.94 39.26 183.52C38.16 184.08 36.81 184.36 35.21 184.36ZM50.6804 184.36C49.4004 184.36 48.3504 184.16 47.5304 183.76C46.7104 183.34 46.1004 182.79 45.7004 182.11C45.3004 181.43 45.1004 180.68 45.1004 179.86C45.1004 178.48 45.6404 177.36 46.7204 176.5C47.8004 175.64 49.4204 175.21 51.5804 175.21H55.3604V174.85C55.3604 173.83 55.0704 173.08 54.4904 172.6C53.9104 172.12 53.1904 171.88 52.3304 171.88C51.5504 171.88 50.8704 172.07 50.2904 172.45C49.7104 172.81 49.3504 173.35 49.2104 174.07H45.4604C45.5604 172.99 45.9204 172.05 46.5404 171.25C47.1804 170.45 48.0004 169.84 49.0004 169.42C50.0004 168.98 51.1204 168.76 52.3604 168.76C54.4804 168.76 56.1504 169.29 57.3704 170.35C58.5904 171.41 59.2004 172.91 59.2004 174.85V184H55.9304L55.5704 181.6C55.1304 182.4 54.5104 183.06 53.7104 183.58C52.9304 184.1 51.9204 184.36 50.6804 184.36ZM51.5504 181.36C52.6504 181.36 53.5004 181 54.1004 180.28C54.7204 179.56 55.1104 178.67 55.2704 177.61H52.0004C50.9804 177.61 50.2504 177.8 49.8104 178.18C49.3704 178.54 49.1504 178.99 49.1504 179.53C49.1504 180.11 49.3704 180.56 49.8104 180.88C50.2504 181.2 50.8304 181.36 51.5504 181.36ZM66.1454 184L60.6854 169.12H64.7054L68.4854 180.37L72.2654 169.12H76.2854L70.7954 184H66.1454ZM84.905 184.36C83.405 184.36 82.075 184.04 80.915 183.4C79.755 182.76 78.845 181.86 78.185 180.7C77.525 179.54 77.195 178.2 77.195 176.68C77.195 175.14 77.515 173.77 78.155 172.57C78.815 171.37 79.715 170.44 80.855 169.78C82.015 169.1 83.375 168.76 84.935 168.76C86.395 168.76 87.685 169.08 88.805 169.72C89.925 170.36 90.795 171.24 91.415 172.36C92.055 173.46 92.375 174.69 92.375 176.05C92.375 176.27 92.365 176.5 92.345 176.74C92.345 176.98 92.335 177.23 92.315 177.49H81.005C81.085 178.65 81.485 179.56 82.205 180.22C82.945 180.88 83.835 181.21 84.875 181.21C85.655 181.21 86.305 181.04 86.825 180.7C87.365 180.34 87.765 179.88 88.025 179.32H91.925C91.645 180.26 91.175 181.12 90.515 181.9C89.875 182.66 89.075 183.26 88.115 183.7C87.175 184.14 86.105 184.36 84.905 184.36ZM84.935 171.88C83.995 171.88 83.165 172.15 82.445 172.69C81.725 173.21 81.265 174.01 81.065 175.09H88.475C88.415 174.11 88.055 173.33 87.395 172.75C86.735 172.17 85.915 171.88 84.935 171.88ZM109.773 184.36C108.233 184.36 106.903 184.09 105.783 183.55C104.683 183.01 103.813 182.27 103.173 181.33C102.553 180.37 102.193 179.29 102.093 178.09H105.843C106.023 178.95 106.463 179.67 107.163 180.25C107.863 180.81 108.733 181.09 109.773 181.09C110.893 181.09 111.803 180.68 112.503 179.86C113.223 179.04 113.583 178.02 113.583 176.8C113.583 175.54 113.223 174.54 112.503 173.8C111.803 173.06 110.913 172.69 109.833 172.69C108.933 172.69 108.153 172.91 107.493 173.35C106.833 173.79 106.363 174.34 106.083 175H102.393L104.193 163H115.833V166.36H107.073L106.113 171.22C106.553 170.74 107.153 170.35 107.913 170.05C108.673 169.73 109.523 169.57 110.463 169.57C111.963 169.57 113.213 169.91 114.213 170.59C115.213 171.25 115.973 172.13 116.493 173.23C117.013 174.31 117.273 175.49 117.273 176.77C117.273 178.23 116.953 179.53 116.313 180.67C115.693 181.81 114.813 182.71 113.673 183.37C112.553 184.03 111.253 184.36 109.773 184.36ZM129.157 184.36C127.217 184.36 125.557 183.91 124.177 183.01C122.797 182.09 121.727 180.82 120.967 179.2C120.227 177.56 119.857 175.66 119.857 173.5C119.857 171.36 120.227 169.47 120.967 167.83C121.727 166.19 122.797 164.92 124.177 164.02C125.557 163.1 127.217 162.64 129.157 162.64C131.097 162.64 132.757 163.1 134.137 164.02C135.517 164.92 136.577 166.19 137.317 167.83C138.077 169.47 138.457 171.36 138.457 173.5C138.457 175.66 138.077 177.56 137.317 179.2C136.577 180.82 135.517 182.09 134.137 183.01C132.757 183.91 131.097 184.36 129.157 184.36ZM129.157 180.91C130.737 180.91 132.027 180.25 133.027 178.93C134.027 177.61 134.527 175.8 134.527 173.5C134.527 171.2 134.027 169.39 133.027 168.07C132.027 166.75 130.737 166.09 129.157 166.09C127.557 166.09 126.257 166.75 125.257 168.07C124.277 169.39 123.787 171.2 123.787 173.5C123.787 175.8 124.277 177.61 125.257 178.93C126.257 180.25 127.557 180.91 129.157 180.91ZM145.865 173.32C144.905 173.32 144.035 173.11 143.255 172.69C142.475 172.25 141.855 171.63 141.395 170.83C140.935 170.03 140.705 169.08 140.705 167.98C140.705 166.88 140.935 165.93 141.395 165.13C141.855 164.33 142.475 163.72 143.255 163.3C144.035 162.86 144.915 162.64 145.895 162.64C146.855 162.64 147.715 162.86 148.475 163.3C149.255 163.72 149.875 164.33 150.335 165.13C150.795 165.93 151.025 166.88 151.025 167.98C151.025 169.08 150.795 170.03 150.335 170.83C149.875 171.63 149.255 172.25 148.475 172.69C147.695 173.11 146.825 173.32 145.865 173.32ZM144.725 184L156.575 163H160.325L148.475 184H144.725ZM145.865 170.65C146.445 170.65 146.945 170.43 147.365 169.99C147.785 169.53 147.995 168.86 147.995 167.98C147.995 167.1 147.785 166.43 147.365 165.97C146.965 165.51 146.465 165.28 145.865 165.28C145.265 165.28 144.755 165.51 144.335 165.97C143.935 166.43 143.735 167.1 143.735 167.98C143.735 168.86 143.935 169.53 144.335 169.99C144.755 170.43 145.265 170.65 145.865 170.65ZM159.305 184.36C158.345 184.36 157.475 184.15 156.695 183.73C155.915 183.29 155.295 182.67 154.835 181.87C154.375 181.07 154.145 180.12 154.145 179.02C154.145 177.92 154.375 176.98 154.835 176.2C155.295 175.4 155.915 174.79 156.695 174.37C157.475 173.93 158.355 173.71 159.335 173.71C160.295 173.71 161.155 173.93 161.915 174.37C162.695 174.79 163.315 175.4 163.775 176.2C164.235 176.98 164.465 177.92 164.465 179.02C164.465 180.12 164.235 181.07 163.775 181.87C163.315 182.67 162.695 183.29 161.915 183.73C161.155 184.15 160.285 184.36 159.305 184.36ZM159.305 181.69C159.905 181.69 160.405 181.47 160.805 181.03C161.225 180.57 161.435 179.9 161.435 179.02C161.435 178.14 161.225 177.47 160.805 177.01C160.405 176.55 159.905 176.32 159.305 176.32C158.705 176.32 158.195 176.55 157.775 177.01C157.375 177.47 157.175 178.14 157.175 179.02C157.175 179.9 157.375 180.57 157.775 181.03C158.195 181.47 158.705 181.69 159.305 181.69ZM34.58 217C33.02 217 31.77 216.62 30.83 215.86C29.89 215.1 29.42 213.75 29.42 211.81V205.33H26.87V202.12H29.42L29.87 198.13H33.26V202.12H37.28V205.33H33.26V211.84C33.26 212.56 33.41 213.06 33.71 213.34C34.03 213.6 34.57 213.73 35.33 213.73H37.19V217H34.58ZM47.0361 217.36C45.5961 217.36 44.2961 217.03 43.1361 216.37C41.9961 215.71 41.0861 214.8 40.4061 213.64C39.7461 212.46 39.4161 211.1 39.4161 209.56C39.4161 208.02 39.7561 206.67 40.4361 205.51C41.1161 204.33 42.0261 203.41 43.1661 202.75C44.3261 202.09 45.6261 201.76 47.0661 201.76C48.4861 201.76 49.7661 202.09 50.9061 202.75C52.0661 203.41 52.9761 204.33 53.6361 205.51C54.3161 206.67 54.6561 208.02 54.6561 209.56C54.6561 211.1 54.3161 212.46 53.6361 213.64C52.9761 214.8 52.0661 215.71 50.9061 216.37C49.7461 217.03 48.4561 217.36 47.0361 217.36ZM47.0361 214.03C48.0361 214.03 48.9061 213.66 49.6461 212.92C50.3861 212.16 50.7561 211.04 50.7561 209.56C50.7561 208.08 50.3861 206.97 49.6461 206.23C48.9061 205.47 48.0461 205.09 47.0661 205.09C46.0461 205.09 45.1661 205.47 44.4261 206.23C43.7061 206.97 43.3461 208.08 43.3461 209.56C43.3461 211.04 43.7061 212.16 44.4261 212.92C45.1661 213.66 46.0361 214.03 47.0361 214.03ZM64.6295 217.36C63.2295 217.36 61.9795 217.02 60.8795 216.34C59.7795 215.66 58.9095 214.73 58.2695 213.55C57.6295 212.37 57.3095 211.03 57.3095 209.53C57.3095 208.03 57.6295 206.7 58.2695 205.54C58.9095 204.36 59.7795 203.44 60.8795 202.78C61.9795 202.1 63.2295 201.76 64.6295 201.76C65.7495 201.76 66.7295 201.97 67.5695 202.39C68.4095 202.81 69.0895 203.4 69.6095 204.16V195.4H73.4495V217H70.0295L69.6095 214.87C69.1295 215.53 68.4895 216.11 67.6895 216.61C66.9095 217.11 65.8895 217.36 64.6295 217.36ZM65.4395 214C66.6795 214 67.6895 213.59 68.4695 212.77C69.2695 211.93 69.6695 210.86 69.6695 209.56C69.6695 208.26 69.2695 207.2 68.4695 206.38C67.6895 205.54 66.6795 205.12 65.4395 205.12C64.2195 205.12 63.2095 205.53 62.4095 206.35C61.6095 207.17 61.2095 208.23 61.2095 209.53C61.2095 210.83 61.6095 211.9 62.4095 212.74C63.2095 213.58 64.2195 214 65.4395 214ZM82.1898 217.36C80.9098 217.36 79.8598 217.16 79.0398 216.76C78.2198 216.34 77.6098 215.79 77.2098 215.11C76.8098 214.43 76.6098 213.68 76.6098 212.86C76.6098 211.48 77.1498 210.36 78.2298 209.5C79.3098 208.64 80.9298 208.21 83.0898 208.21H86.8698V207.85C86.8698 206.83 86.5798 206.08 85.9998 205.6C85.4198 205.12 84.6998 204.88 83.8398 204.88C83.0598 204.88 82.3798 205.07 81.7998 205.45C81.2198 205.81 80.8598 206.35 80.7198 207.07H76.9698C77.0698 205.99 77.4298 205.05 78.0498 204.25C78.6898 203.45 79.5098 202.84 80.5098 202.42C81.5098 201.98 82.6298 201.76 83.8698 201.76C85.9898 201.76 87.6598 202.29 88.8798 203.35C90.0998 204.41 90.7098 205.91 90.7098 207.85V217H87.4398L87.0798 214.6C86.6398 215.4 86.0198 216.06 85.2198 216.58C84.4398 217.1 83.4298 217.36 82.1898 217.36ZM83.0598 214.36C84.1598 214.36 85.0098 214 85.6098 213.28C86.2298 212.56 86.6198 211.67 86.7798 210.61H83.5098C82.4898 210.61 81.7598 210.8 81.3198 211.18C80.8798 211.54 80.6598 211.99 80.6598 212.53C80.6598 213.11 80.8798 213.56 81.3198 213.88C81.7598 214.2 82.3398 214.36 83.0598 214.36ZM95.4362 223.6L98.8862 216.01H97.9862L92.1962 202.12H96.3662L100.536 212.59L104.886 202.12H108.966L99.5162 223.6H95.4362ZM110.541 217.21C109.841 217.21 109.261 216.99 108.801 216.55C108.361 216.11 108.141 215.58 108.141 214.96C108.141 214.32 108.361 213.78 108.801 213.34C109.261 212.9 109.841 212.68 110.541 212.68C111.241 212.68 111.811 212.9 112.251 213.34C112.711 213.78 112.941 214.32 112.941 214.96C112.941 215.58 112.711 216.11 112.251 216.55C111.811 216.99 111.241 217.21 110.541 217.21Z" fill="#FFC46C"/>
<rect x="26" y="247" width="188" height="37" fill="#FFC46C"/>
<path d="M93.1584 270.156C92.4911 270.156 91.9017 270.043 91.3904 269.818C90.8791 269.584 90.4761 269.255 90.1814 268.83C89.8867 268.397 89.7351 267.872 89.7264 267.257H91.4814C91.4987 267.682 91.6504 268.041 91.9364 268.336C92.2311 268.622 92.6341 268.765 93.1454 268.765C93.5874 268.765 93.9384 268.661 94.1984 268.453C94.4584 268.236 94.5884 267.95 94.5884 267.595C94.5884 267.222 94.4714 266.932 94.2374 266.724C94.0121 266.516 93.7087 266.347 93.3274 266.217C92.9461 266.087 92.5387 265.948 92.1054 265.801C91.4034 265.558 90.8661 265.246 90.4934 264.865C90.1294 264.484 89.9474 263.977 89.9474 263.344C89.9387 262.807 90.0644 262.347 90.3244 261.966C90.5931 261.576 90.9571 261.277 91.4164 261.069C91.8757 260.852 92.4044 260.744 93.0024 260.744C93.6091 260.744 94.1421 260.852 94.6014 261.069C95.0694 261.286 95.4334 261.589 95.6934 261.979C95.9621 262.369 96.1051 262.833 96.1224 263.37H94.3414C94.3327 263.049 94.2071 262.768 93.9644 262.525C93.7304 262.274 93.4011 262.148 92.9764 262.148C92.6124 262.139 92.3047 262.23 92.0534 262.421C91.8107 262.603 91.6894 262.872 91.6894 263.227C91.6894 263.53 91.7847 263.773 91.9754 263.955C92.1661 264.128 92.4261 264.276 92.7554 264.397C93.0847 264.518 93.4617 264.648 93.8864 264.787C94.3371 264.943 94.7487 265.125 95.1214 265.333C95.4941 265.541 95.7931 265.818 96.0184 266.165C96.2437 266.503 96.3564 266.941 96.3564 267.478C96.3564 267.955 96.2351 268.397 95.9924 268.804C95.7497 269.211 95.3901 269.541 94.9134 269.792C94.4367 270.035 93.8517 270.156 93.1584 270.156ZM97.6392 270V260.64H99.3032V264.54C99.5199 264.185 99.8102 263.907 100.174 263.708C100.547 263.5 100.972 263.396 101.448 263.396C102.246 263.396 102.861 263.647 103.294 264.15C103.736 264.653 103.957 265.389 103.957 266.36V270H102.306V266.516C102.306 265.961 102.194 265.537 101.968 265.242C101.752 264.947 101.405 264.8 100.928 264.8C100.46 264.8 100.07 264.965 99.7582 265.294C99.4549 265.623 99.3032 266.083 99.3032 266.672V270H97.6392ZM108.512 270.156C107.888 270.156 107.325 270.013 106.822 269.727C106.328 269.441 105.934 269.047 105.639 268.544C105.353 268.033 105.21 267.443 105.21 266.776C105.21 266.109 105.358 265.524 105.652 265.021C105.947 264.51 106.341 264.111 106.835 263.825C107.338 263.539 107.901 263.396 108.525 263.396C109.141 263.396 109.695 263.539 110.189 263.825C110.692 264.111 111.086 264.51 111.372 265.021C111.667 265.524 111.814 266.109 111.814 266.776C111.814 267.443 111.667 268.033 111.372 268.544C111.086 269.047 110.692 269.441 110.189 269.727C109.687 270.013 109.128 270.156 108.512 270.156ZM108.512 268.713C108.946 268.713 109.323 268.553 109.643 268.232C109.964 267.903 110.124 267.417 110.124 266.776C110.124 266.135 109.964 265.654 109.643 265.333C109.323 265.004 108.95 264.839 108.525 264.839C108.083 264.839 107.702 265.004 107.381 265.333C107.069 265.654 106.913 266.135 106.913 266.776C106.913 267.417 107.069 267.903 107.381 268.232C107.702 268.553 108.079 268.713 108.512 268.713ZM113.172 272.86V263.552H114.654L114.836 264.475C115.044 264.189 115.317 263.938 115.655 263.721C116.002 263.504 116.448 263.396 116.994 263.396C117.601 263.396 118.143 263.543 118.619 263.838C119.096 264.133 119.473 264.536 119.75 265.047C120.028 265.558 120.166 266.139 120.166 266.789C120.166 267.439 120.028 268.02 119.75 268.531C119.473 269.034 119.096 269.432 118.619 269.727C118.143 270.013 117.601 270.156 116.994 270.156C116.509 270.156 116.084 270.065 115.72 269.883C115.356 269.701 115.062 269.445 114.836 269.116V272.86H113.172ZM116.643 268.7C117.172 268.7 117.61 268.522 117.956 268.167C118.303 267.812 118.476 267.352 118.476 266.789C118.476 266.226 118.303 265.762 117.956 265.398C117.61 265.034 117.172 264.852 116.643 264.852C116.106 264.852 115.664 265.034 115.317 265.398C114.979 265.753 114.81 266.213 114.81 266.776C114.81 267.339 114.979 267.803 115.317 268.167C115.664 268.522 116.106 268.7 116.643 268.7ZM124.529 270V260.9H126.193L130.47 267.309V260.9H132.134V270H130.47L126.193 263.604V270H124.529ZM136.823 270.156C136.199 270.156 135.636 270.013 135.133 269.727C134.639 269.441 134.245 269.047 133.95 268.544C133.664 268.033 133.521 267.443 133.521 266.776C133.521 266.109 133.669 265.524 133.963 265.021C134.258 264.51 134.652 264.111 135.146 263.825C135.649 263.539 136.212 263.396 136.836 263.396C137.452 263.396 138.006 263.539 138.5 263.825C139.003 264.111 139.397 264.51 139.683 265.021C139.978 265.524 140.125 266.109 140.125 266.776C140.125 267.443 139.978 268.033 139.683 268.544C139.397 269.047 139.003 269.441 138.5 269.727C137.998 270.013 137.439 270.156 136.823 270.156ZM136.823 268.713C137.257 268.713 137.634 268.553 137.954 268.232C138.275 267.903 138.435 267.417 138.435 266.776C138.435 266.135 138.275 265.654 137.954 265.333C137.634 265.004 137.261 264.839 136.836 264.839C136.394 264.839 136.013 265.004 135.692 265.333C135.38 265.654 135.224 266.135 135.224 266.776C135.224 267.417 135.38 267.903 135.692 268.232C136.013 268.553 136.39 268.713 136.823 268.713ZM142.516 270L140.631 263.552H142.282L143.4 268.193L144.7 263.552H146.546L147.846 268.193L148.977 263.552H150.628L148.73 270H147.001L145.623 265.177L144.245 270H142.516Z" fill="#1C2120"/>
<defs>
<filter id="filter0_f" x="-20" y="223" width="289" height="289" filterUnits="userSpaceOnUse" color-interpolation-filters="sRGB">
<feFlood flood-opacity="0" result="BackgroundImageFix"/>
<feBlend mode="normal" in="SourceGraphic" in2="BackgroundImageFix" result="shape"/>
<feGaussianBlur stdDeviation="25" result="effect1_foregroundBlur"/>
</filter>
</defs>
</svg>
